<svg xmlns="http://www.w3.org/2000/svg" xmlns:xlink="http://www.w3.org/1999/xlink" width="500" zoomAndPan="magnify" viewBox="0 0 375 374.999991" height="500" preserveAspectRatio="xMidYMid meet" version="1.0"><defs><g/><clipPath id="ea53757f79"><path d="M 63.976562 193.175781 L 305.714844 193.175781 L 305.714844 220.863281 L 63.976562 220.863281 Z M 63.976562 193.175781 " clip-rule="nonzero"/></clipPath><clipPath id="11efd7a6cf"><path d="M 77.824219 193.175781 L 291.792969 193.175781 C 295.464844 193.175781 298.984375 194.632812 301.582031 197.230469 C 304.179688 199.828125 305.636719 203.347656 305.636719 207.019531 C 305.636719 210.691406 304.179688 214.214844 301.582031 216.808594 C 298.984375 219.40625 295.464844 220.863281 291.792969 220.863281 L 77.824219 220.863281 C 74.152344 220.863281 70.628906 219.40625 68.03125 216.808594 C 65.4375 214.214844 63.976562 210.691406 63.976562 207.019531 C 63.976562 203.347656 65.4375 199.828125 68.03125 197.230469 C 70.628906 194.632812 74.152344 193.175781 77.824219 193.175781 Z M 77.824219 193.175781 " clip-rule="nonzero"/></clipPath></defs><rect x="-37.5" width="450" fill="#ffffff" y="-37.499999" height="449.999989" fill-opacity="1"/><rect x="-37.5" width="450" fill="#ffffff" y="-37.499999" height="449.999989" fill-opacity="1"/><path stroke-linecap="butt" transform="matrix(0.75, 0, 0, 0.75, 96.637455, -14.680127)" fill="none" stroke-linejoin="miter" d="M 46.69173 334.000607 L 46.69173 309.901647 L 77.306315 309.901647 L 77.306315 140.511011 L 46.69173 140.511011 L 46.69173 116.41726 L 138.545902 116.41726 L 138.545902 140.511011 L 107.926109 140.511011 L 107.926109 309.901647 L 138.545902 309.901647 L 138.545902 334.000607 Z M 46.69173 334.000607 " stroke="#ffffff" stroke-width="24.43095" stroke-opacity="1" stroke-miterlimit="4"/><g fill="#000000" fill-opacity="1"><g transform="translate(115.551516, 235.819857)"><g><path d="M 16.125 0 L 16.125 -18.078125 L 39.09375 -18.078125 L 39.09375 -145.125 L 16.125 -145.125 L 16.125 -163.203125 L 85.015625 -163.203125 L 85.015625 -145.125 L 62.0625 -145.125 L 62.0625 -18.078125 L 85.015625 -18.078125 L 85.015625 0 Z M 16.125 0 "/></g></g></g><path stroke-linecap="butt" transform="matrix(0.75, 0, 0, 0.75, 150.087489, 83.341195)" fill="none" stroke-linejoin="miter" d="M 19.831266 267.998217 L 19.831266 93.519038 L 44.383351 93.519038 L 44.383351 167.68571 L 135.836482 167.68571 L 135.836482 93.519038 L 160.388567 93.519038 L 160.388567 267.998217 L 135.836482 267.998217 L 135.836482 188.857586 L 44.383351 188.857586 L 44.383351 267.998217 Z M 19.831266 267.998217 " stroke="#ffffff" stroke-width="19.5912" stroke-opacity="1" stroke-miterlimit="4"/><g fill="#000000" fill-opacity="1"><g transform="translate(150.087489, 284.341181)"><g><path d="M 14.890625 0 L 14.890625 -130.859375 L 33.296875 -130.859375 L 33.296875 -75.234375 L 101.875 -75.234375 L 101.875 -130.859375 L 120.28125 -130.859375 L 120.28125 0 L 101.875 0 L 101.875 -59.359375 L 33.296875 -59.359375 L 33.296875 0 Z M 14.890625 0 "/></g></g></g><g clip-path="url(#ea53757f79)"><g clip-path="url(#11efd7a6cf)"><path fill="#ffffff" d="M 63.976562 193.175781 L 305.605469 193.175781 L 305.605469 220.863281 L 63.976562 220.863281 Z M 63.976562 193.175781 " fill-opacity="1" fill-rule="nonzero"/></g></g><g fill="#000000" fill-opacity="1"><g transform="translate(116.143158, 213.597569)"><g><path d="M 1.4375 0 L 1.4375 -1.625 L 3.5 -1.625 L 3.5 -13 L 1.4375 -13 L 1.4375 -14.609375 L 7.609375 -14.609375 L 7.609375 -13 L 5.5625 -13 L 5.5625 -1.625 L 7.609375 -1.625 L 7.609375 0 Z M 1.4375 0 "/></g></g></g><g fill="#000000" fill-opacity="1"><g transform="translate(126.814602, 213.597569)"><g><path d="M 6.46875 0.265625 C 5.664062 0.265625 4.882812 0.140625 4.125 -0.109375 C 3.375 -0.359375 2.707031 -0.738281 2.125 -1.25 C 1.550781 -1.757812 1.132812 -2.40625 0.875 -3.1875 L 2.78125 -3.765625 C 2.957031 -3.234375 3.238281 -2.796875 3.625 -2.453125 C 4.019531 -2.117188 4.476562 -1.867188 5 -1.703125 C 5.519531 -1.546875 6.039062 -1.46875 6.5625 -1.46875 C 7.144531 -1.46875 7.695312 -1.5625 8.21875 -1.75 C 8.75 -1.9375 9.175781 -2.222656 9.5 -2.609375 C 9.832031 -2.992188 10 -3.476562 10 -4.0625 C 10 -4.664062 9.78125 -5.140625 9.34375 -5.484375 C 8.90625 -5.835938 8.144531 -6.15625 7.0625 -6.4375 L 5.203125 -6.84375 C 4.535156 -7.019531 3.875 -7.253906 3.21875 -7.546875 C 2.570312 -7.835938 2.039062 -8.253906 1.625 -8.796875 C 1.207031 -9.335938 1 -10.054688 1 -10.953125 C 1 -11.785156 1.257812 -12.492188 1.78125 -13.078125 C 2.300781 -13.660156 2.972656 -14.101562 3.796875 -14.40625 C 4.617188 -14.71875 5.472656 -14.875 6.359375 -14.875 C 7.046875 -14.875 7.722656 -14.773438 8.390625 -14.578125 C 9.054688 -14.378906 9.65625 -14.078125 10.1875 -13.671875 C 10.71875 -13.273438 11.132812 -12.765625 11.4375 -12.140625 L 9.5625 -11.59375 C 9.28125 -12.101562 8.828125 -12.488281 8.203125 -12.75 C 7.585938 -13.007812 6.945312 -13.140625 6.28125 -13.140625 C 5.75 -13.140625 5.242188 -13.054688 4.765625 -12.890625 C 4.285156 -12.722656 3.890625 -12.472656 3.578125 -12.140625 C 3.273438 -11.804688 3.125 -11.382812 3.125 -10.875 C 3.125 -10.394531 3.265625 -10.007812 3.546875 -9.71875 C 3.835938 -9.425781 4.21875 -9.191406 4.6875 -9.015625 C 5.164062 -8.847656 5.6875 -8.703125 6.25 -8.578125 L 7.859375 -8.21875 C 8.597656 -8.050781 9.296875 -7.8125 9.953125 -7.5 C 10.609375 -7.195312 11.140625 -6.765625 11.546875 -6.203125 C 11.953125 -5.648438 12.15625 -4.910156 12.15625 -3.984375 C 12.15625 -3.304688 11.992188 -2.703125 11.671875 -2.171875 C 11.359375 -1.640625 10.929688 -1.195312 10.390625 -0.84375 C 9.847656 -0.488281 9.238281 -0.210938 8.5625 -0.015625 C 7.882812 0.171875 7.1875 0.265625 6.46875 0.265625 Z M 6.46875 0.265625 "/></g></g></g><g fill="#000000" fill-opacity="1"><g transform="translate(141.465876, 213.597569)"><g><path d="M 6.46875 0.265625 C 5.664062 0.265625 4.882812 0.140625 4.125 -0.109375 C 3.375 -0.359375 2.707031 -0.738281 2.125 -1.25 C 1.550781 -1.757812 1.132812 -2.40625 0.875 -3.1875 L 2.78125 -3.765625 C 2.957031 -3.234375 3.238281 -2.796875 3.625 -2.453125 C 4.019531 -2.117188 4.476562 -1.867188 5 -1.703125 C 5.519531 -1.546875 6.039062 -1.46875 6.5625 -1.46875 C 7.144531 -1.46875 7.695312 -1.5625 8.21875 -1.75 C 8.75 -1.9375 9.175781 -2.222656 9.5 -2.609375 C 9.832031 -2.992188 10 -3.476562 10 -4.0625 C 10 -4.664062 9.78125 -5.140625 9.34375 -5.484375 C 8.90625 -5.835938 8.144531 -6.15625 7.0625 -6.4375 L 5.203125 -6.84375 C 4.535156 -7.019531 3.875 -7.253906 3.21875 -7.546875 C 2.570312 -7.835938 2.039062 -8.253906 1.625 -8.796875 C 1.207031 -9.335938 1 -10.054688 1 -10.953125 C 1 -11.785156 1.257812 -12.492188 1.78125 -13.078125 C 2.300781 -13.660156 2.972656 -14.101562 3.796875 -14.40625 C 4.617188 -14.71875 5.472656 -14.875 6.359375 -14.875 C 7.046875 -14.875 7.722656 -14.773438 8.390625 -14.578125 C 9.054688 -14.378906 9.65625 -14.078125 10.1875 -13.671875 C 10.71875 -13.273438 11.132812 -12.765625 11.4375 -12.140625 L 9.5625 -11.59375 C 9.28125 -12.101562 8.828125 -12.488281 8.203125 -12.75 C 7.585938 -13.007812 6.945312 -13.140625 6.28125 -13.140625 C 5.75 -13.140625 5.242188 -13.054688 4.765625 -12.890625 C 4.285156 -12.722656 3.890625 -12.472656 3.578125 -12.140625 C 3.273438 -11.804688 3.125 -11.382812 3.125 -10.875 C 3.125 -10.394531 3.265625 -10.007812 3.546875 -9.71875 C 3.835938 -9.425781 4.21875 -9.191406 4.6875 -9.015625 C 5.164062 -8.847656 5.6875 -8.703125 6.25 -8.578125 L 7.859375 -8.21875 C 8.597656 -8.050781 9.296875 -7.8125 9.953125 -7.5 C 10.609375 -7.195312 11.140625 -6.765625 11.546875 -6.203125 C 11.953125 -5.648438 12.15625 -4.910156 12.15625 -3.984375 C 12.15625 -3.304688 11.992188 -2.703125 11.671875 -2.171875 C 11.359375 -1.640625 10.929688 -1.195312 10.390625 -0.84375 C 9.847656 -0.488281 9.238281 -0.210938 8.5625 -0.015625 C 7.882812 0.171875 7.1875 0.265625 6.46875 0.265625 Z M 6.46875 0.265625 "/></g></g></g><g fill="#000000" fill-opacity="1"><g transform="translate(156.117151, 213.597569)"><g><path d="M 7.546875 0.265625 C 5.429688 0.265625 3.921875 -0.257812 3.015625 -1.3125 C 2.109375 -2.375 1.65625 -3.972656 1.65625 -6.109375 L 1.65625 -14.609375 L 3.71875 -14.609375 L 3.71875 -5.953125 C 3.71875 -4.503906 4.003906 -3.398438 4.578125 -2.640625 C 5.160156 -1.890625 6.148438 -1.515625 7.546875 -1.515625 C 8.941406 -1.515625 9.925781 -1.890625 10.5 -2.640625 C 11.082031 -3.398438 11.375 -4.503906 11.375 -5.953125 L 11.375 -14.609375 L 13.4375 -14.609375 L 13.4375 -6.109375 C 13.4375 -3.972656 12.984375 -2.375 12.078125 -1.3125 C 11.179688 -0.257812 9.671875 0.265625 7.546875 0.265625 Z M 7.546875 0.265625 "/></g></g></g><g fill="#000000" fill-opacity="1"><g transform="translate(172.823933, 213.597569)"><g><path d="M 1.65625 0 L 1.65625 -14.609375 L 11.578125 -14.609375 L 11.578125 -12.84375 L 3.71875 -12.84375 L 3.71875 -8.40625 L 9.515625 -8.40625 L 9.515625 -6.625 L 3.71875 -6.625 L 3.71875 -1.765625 L 11.578125 -1.765625 L 11.578125 0 Z M 1.65625 0 "/></g></g></g><g fill="#000000" fill-opacity="1"><g transform="translate(186.841056, 213.597569)"><g><path d="M 0.828125 -4.546875 L 0.828125 -6.328125 L 7.21875 -6.328125 L 7.21875 -4.546875 Z M 0.828125 -4.546875 "/></g></g></g><g fill="#000000" fill-opacity="1"><g transform="translate(196.506621, 213.597569)"><g><path d="M 1.65625 0 L 1.65625 -14.609375 L 3.71875 -14.609375 L 3.71875 -8.40625 L 11.375 -8.40625 L 11.375 -14.609375 L 13.4375 -14.609375 L 13.4375 0 L 11.375 0 L 11.375 -6.625 L 3.71875 -6.625 L 3.71875 0 Z M 1.65625 0 "/></g></g></g><g fill="#000000" fill-opacity="1"><g transform="translate(213.213403, 213.597569)"><g><path d="M 7.9375 0.265625 C 6.539062 0.265625 5.332031 -0.0546875 4.3125 -0.703125 C 3.289062 -1.359375 2.5 -2.257812 1.9375 -3.40625 C 1.375 -4.550781 1.09375 -5.859375 1.09375 -7.328125 C 1.09375 -8.796875 1.375 -10.09375 1.9375 -11.21875 C 2.5 -12.351562 3.289062 -13.242188 4.3125 -13.890625 C 5.332031 -14.546875 6.539062 -14.875 7.9375 -14.875 C 9.351562 -14.875 10.570312 -14.546875 11.59375 -13.890625 C 12.613281 -13.242188 13.40625 -12.351562 13.96875 -11.21875 C 14.53125 -10.09375 14.8125 -8.796875 14.8125 -7.328125 C 14.8125 -5.859375 14.53125 -4.550781 13.96875 -3.40625 C 13.40625 -2.257812 12.613281 -1.359375 11.59375 -0.703125 C 10.570312 -0.0546875 9.351562 0.265625 7.9375 0.265625 Z M 7.9375 -1.46875 C 8.832031 -1.46875 9.640625 -1.691406 10.359375 -2.140625 C 11.078125 -2.597656 11.644531 -3.257812 12.0625 -4.125 C 12.488281 -4.988281 12.703125 -6.054688 12.703125 -7.328125 C 12.703125 -8.578125 12.488281 -9.632812 12.0625 -10.5 C 11.644531 -11.375 11.078125 -12.03125 10.359375 -12.46875 C 9.640625 -12.914062 8.832031 -13.140625 7.9375 -13.140625 C 7.0625 -13.140625 6.265625 -12.914062 5.546875 -12.46875 C 4.828125 -12.03125 4.253906 -11.375 3.828125 -10.5 C 3.398438 -9.632812 3.1875 -8.578125 3.1875 -7.328125 C 3.1875 -6.054688 3.398438 -4.988281 3.828125 -4.125 C 4.253906 -3.257812 4.828125 -2.597656 5.546875 -2.140625 C 6.265625 -1.691406 7.0625 -1.46875 7.9375 -1.46875 Z M 7.9375 -1.46875 "/></g></g></g><g fill="#000000" fill-opacity="1"><g transform="translate(230.729271, 213.597569)"><g><path d="M 1.65625 0 L 1.65625 -14.609375 L 3.71875 -14.609375 L 3.71875 -1.765625 L 11.578125 -1.765625 L 11.578125 0 Z M 1.65625 0 "/></g></g></g><g fill="#000000" fill-opacity="1"><g transform="translate(244.134112, 213.597569)"><g><path d="M 1.65625 0 L 1.65625 -14.609375 L 5.640625 -14.609375 C 6.804688 -14.609375 7.875 -14.488281 8.84375 -14.25 C 9.8125 -14.007812 10.65625 -13.613281 11.375 -13.0625 C 12.09375 -12.507812 12.644531 -11.757812 13.03125 -10.8125 C 13.425781 -9.875 13.625 -8.710938 13.625 -7.328125 C 13.625 -5.929688 13.425781 -4.757812 13.03125 -3.8125 C 12.644531 -2.875 12.09375 -2.125 11.375 -1.5625 C 10.65625 -1 9.8125 -0.597656 8.84375 -0.359375 C 7.875 -0.117188 6.804688 0 5.640625 0 Z M 3.71875 -1.734375 L 5.59375 -1.734375 C 6.351562 -1.734375 7.085938 -1.789062 7.796875 -1.90625 C 8.503906 -2.03125 9.140625 -2.28125 9.703125 -2.65625 C 10.265625 -3.03125 10.707031 -3.59375 11.03125 -4.34375 C 11.363281 -5.09375 11.53125 -6.085938 11.53125 -7.328125 C 11.53125 -8.566406 11.363281 -9.550781 11.03125 -10.28125 C 10.707031 -11.019531 10.265625 -11.578125 9.703125 -11.953125 C 9.140625 -12.328125 8.503906 -12.578125 7.796875 -12.703125 C 7.085938 -12.828125 6.351562 -12.890625 5.59375 -12.890625 L 3.71875 -12.890625 Z M 3.71875 -1.734375 "/></g></g></g></svg>